# xmcd
#
# Track frame offsets: 
#        150
#        16042
#        28818
#        51132
#        63411
#        83431
#        108134
#        123159
#        138451
#        166360
#        181528
#        202131
#        216717
#
# Disc length: 3160 seconds
#
# Revision: 2
# Processed by: cddbd v1.5.2PL0 Copyright (c) Steve Scherf et al.
# Submitted via: ExactAudioCopy v1.0b1
#
DISCID=ac0c560d
DTITLE=Q4 Melody GARBOT - My one and only thrill
DYEAR=2009
DGENRE=Jazz
TTITLE0=Baby I'm a fool
TTITLE1=If the stars were mine
TTITLE2=Who will comfort me
TTITLE3=Your heart is as black as night
TTITLE4=Lover undercover
TTITLE5=Our love is easy
TTITLE6=Les étoiles
TTITLE7=The rain
TTITLE8=My one and only thrill
TTITLE9=Deep within the corners of my mind
TTITLE10=Over the rainbow
TTITLE11=If the stars were mine
TTITLE12=Over the rainbow
EXTD=YEAR: 2009
EXTT0=
EXTT1=
EXTT2=
EXTT3=
EXTT4=
EXTT5=
EXTT6=
EXTT7=
EXTT8=
EXTT9=
EXTT10=
EXTT11=
EXTT12=
PLAYORDER=
